<?xml version="1.0" encoding="UTF-8" standalone="no"?>
<!DOCTYPE svg PUBLIC "-//W3C//DTD SVG 1.1//EN"
 "http://www.w3.org/Graphics/SVG/1.1/DTD/svg11.dtd">
<!-- Generated by graphviz version 2.38.0 (20140413.2041)
 -->
<!-- Title: g Pages: 1 -->
<svg width="301pt" height="98pt"
 viewBox="0.00 0.00 300.61 98.00" xmlns="http://www.w3.org/2000/svg" xmlns:xlink="http://www.w3.org/1999/xlink">
<g id="graph0" class="graph" transform="scale(1 1) rotate(0) translate(4 94)">
<title>g</title>
<polygon fill="white" stroke="none" points="-4,4 -4,-94 296.607,-94 296.607,4 -4,4"/>
<!-- idata -->
<g id="node1" class="node"><title>idata</title>
<polygon fill="lightgray" stroke="black" points="71.3961,-90 0.200531,-90 0.200531,-54 71.3961,-54 71.3961,-90"/>
<text text-anchor="middle" x="35.7983" y="-67.8" font-family="Times,serif" font-size="14.00">input data</text>
</g>
<!-- f -->
<g id="node5" class="node"><title>f</title>
<polygon fill="whitesmoke" stroke="black" points="178.219,-63 107.388,-63 107.388,-27 178.219,-27 178.219,-63"/>
<text text-anchor="middle" x="142.804" y="-40.8" font-family="Times,serif" font-size="14.00">backward</text>
</g>
<!-- idata&#45;&gt;f -->
<g id="edge1" class="edge"><title>idata&#45;&gt;f</title>
<path fill="none" stroke="black" d="M71.472,-63.0844C79.8923,-60.9193 89.0067,-58.5757 97.795,-56.3159"/>
<polygon fill="black" stroke="black" points="98.711,-59.6943 107.524,-53.8142 96.9677,-52.9149 98.711,-59.6943"/>
</g>
<!-- idiff -->
<g id="node2" class="node"><title>idiff</title>
<polygon fill="plum" stroke="black" points="70.0459,-36 1.55082,-36 1.55082,-0 70.0459,-0 70.0459,-36"/>
<text text-anchor="middle" x="35.7983" y="-13.8" font-family="Times,serif" font-size="14.00">input diff</text>
</g>
<!-- idiff&#45;&gt;f -->
<g id="edge2" class="edge"><title>idiff&#45;&gt;f</title>
<path fill="none" stroke="black" d="M79.7719,-29.0498C88.9533,-31.4106 98.5369,-33.8748 107.348,-36.1405"/>
<polygon fill="black" stroke="black" points="80.5793,-25.6436 70.0227,-26.543 78.836,-32.4231 80.5793,-25.6436"/>
</g>
<!-- odata -->
<g id="node3" class="node"><title>odata</title>
<polygon fill="lightgray" stroke="black" points="292.407,-90 214.211,-90 214.211,-54 292.407,-54 292.407,-90"/>
<text text-anchor="middle" x="253.309" y="-67.8" font-family="Times,serif" font-size="14.00">output data</text>
</g>
<!-- odiff -->
<g id="node4" class="node"><title>odiff</title>
<polygon fill="lightgray" stroke="black" points="291.057,-36 215.562,-36 215.562,-0 291.057,-0 291.057,-36"/>
<text text-anchor="middle" x="253.309" y="-13.8" font-family="Times,serif" font-size="14.00">output diff</text>
</g>
<!-- f&#45;&gt;odata -->
<g id="edge3" class="edge"><title>f&#45;&gt;odata</title>
<path fill="none" stroke="black" d="M188.045,-56.0087C196.669,-58.1548 205.643,-60.3879 214.054,-62.4808"/>
<polygon fill="black" stroke="black" points="188.685,-52.5613 178.135,-53.543 186.994,-59.3542 188.685,-52.5613"/>
</g>
<!-- f&#45;&gt;odiff -->
<g id="edge4" class="edge"><title>f&#45;&gt;odiff</title>
<path fill="none" stroke="black" d="M187.898,-34.0278C197.089,-31.7408 206.683,-29.3534 215.574,-27.141"/>
<polygon fill="black" stroke="black" points="186.994,-30.6458 178.135,-36.457 188.685,-37.4387 186.994,-30.6458"/>
</g>
</g>
</svg>
