<?xml version="1.0" encoding="UTF-8" standalone="no"?>
<!DOCTYPE svg PUBLIC "-//W3C//DTD SVG 1.1//EN"
 "http://www.w3.org/Graphics/SVG/1.1/DTD/svg11.dtd">
<!-- Generated by graphviz version 2.38.0 (20140413.2041)
 -->
<!-- Title: g Pages: 1 -->
<svg width="304pt" height="206pt"
 viewBox="0.00 0.00 304.21 206.00" xmlns="http://www.w3.org/2000/svg" xmlns:xlink="http://www.w3.org/1999/xlink">
<g id="graph0" class="graph" transform="scale(1 1) rotate(0) translate(4 202)">
<title>g</title>
<polygon fill="white" stroke="none" points="-4,4 -4,-202 300.214,-202 300.214,4 -4,4"/>
<!-- x1 -->
<g id="node1" class="node"><title>x1</title>
<polygon fill="PowderBlue" stroke="black" points="36,-198 0,-198 0,-162 36,-162 36,-198"/>
<text text-anchor="start" x="12.4014" y="-176.8" font-family="Times,serif" font-weight="bold" font-size="14.00">x</text>
<text text-anchor="start" x="19.4014" y="-176.8" font-family="Times,serif" font-style="italic" font-size="14.00">¹</text>
</g>
<!-- f -->
<g id="node5" class="node"><title>f</title>
<ellipse fill="whitesmoke" stroke="black" cx="100" cy="-99" rx="27" ry="18"/>
<text text-anchor="start" x="97.6689" y="-95.8" font-family="Times,serif" font-style="italic" font-size="14.00">f</text>
</g>
<!-- x1&#45;&gt;f -->
<g id="edge1" class="edge"><title>x1&#45;&gt;f</title>
<path fill="none" stroke="black" d="M36.3588,-162.424C48.3443,-150.289 64.3736,-134.059 77.2168,-121.055"/>
<polygon fill="black" stroke="black" points="79.819,-123.402 84.3559,-113.827 74.8386,-118.483 79.819,-123.402"/>
</g>
<!-- x2 -->
<g id="node2" class="node"><title>x2</title>
<polygon fill="PowderBlue" stroke="black" points="36,-144 0,-144 0,-108 36,-108 36,-144"/>
<text text-anchor="start" x="12.4014" y="-122.8" font-family="Times,serif" font-weight="bold" font-size="14.00">x</text>
<text text-anchor="start" x="19.4014" y="-122.8" font-family="Times,serif" font-style="italic" font-size="14.00">²</text>
</g>
<!-- x2&#45;&gt;f -->
<g id="edge2" class="edge"><title>x2&#45;&gt;f</title>
<path fill="none" stroke="black" d="M36.3588,-120.141C45.065,-117.203 55.9049,-113.545 66.1075,-110.101"/>
<polygon fill="black" stroke="black" points="67.2479,-113.41 75.6036,-106.896 65.0094,-106.778 67.2479,-113.41"/>
</g>
<!-- xdot -->
<g id="node3" class="node"><title>xdot</title>
<polygon fill="none" stroke="none" points="36,-90 0,-90 0,-54 36,-54 36,-90"/>
<text text-anchor="middle" x="18" y="-67.8" font-family="Times,serif" font-size="14.00">...</text>
</g>
<!-- xdot&#45;&gt;f -->
<g id="edge3" class="edge"><title>xdot&#45;&gt;f</title>
<path fill="none" stroke="black" d="M36.3588,-77.8586C45.065,-80.7969 55.9049,-84.4554 66.1075,-87.8988"/>
<polygon fill="black" stroke="black" points="65.0094,-91.2221 75.6036,-91.1037 67.2479,-84.5896 65.0094,-91.2221"/>
</g>
<!-- xN -->
<g id="node4" class="node"><title>xN</title>
<polygon fill="PowderBlue" stroke="black" points="36,-36 0,-36 0,-0 36,-0 36,-36"/>
<text text-anchor="start" x="11.6904" y="-16.0441" font-family="Times,serif" font-weight="bold" font-size="14.00">x</text>
<text text-anchor="start" x="18.6904" y="-16.0441" font-family="Times,serif" font-style="italic" font-size="14.00">ⁿ</text>
</g>
<!-- xN&#45;&gt;f -->
<g id="edge4" class="edge"><title>xN&#45;&gt;f</title>
<path fill="none" stroke="black" d="M36.3588,-35.5758C48.3443,-47.7111 64.3736,-63.9408 77.2168,-76.9445"/>
<polygon fill="black" stroke="black" points="74.8386,-79.5174 84.3559,-84.1728 79.819,-74.5985 74.8386,-79.5174"/>
</g>
<!-- abc -->
<g id="node6" class="node"><title>abc</title>
<ellipse fill="mintcream" stroke="white" cx="187.214" cy="-99" rx="18" ry="18"/>
<text text-anchor="middle" x="187.214" y="-94.8" font-family="Times,serif" font-size="14.00">...</text>
</g>
<!-- f&#45;&gt;abc -->
<g id="edge5" class="edge"><title>f&#45;&gt;abc</title>
<path fill="none" stroke="black" d="M127.03,-99C137.201,-99 148.866,-99 159.136,-99"/>
<polygon fill="black" stroke="black" points="159.213,-102.5 169.213,-99 159.213,-95.5001 159.213,-102.5"/>
<text text-anchor="start" x="145" y="-102.8" font-family="Times,serif" font-weight="bold" font-size="14.00">z</text>
</g>
<!-- L -->
<g id="node7" class="node"><title>L</title>
<ellipse fill="whitesmoke" stroke="black" cx="269.214" cy="-99" rx="27" ry="18"/>
<text text-anchor="start" x="264.938" y="-95.8" font-family="Times,serif" font-style="italic" font-size="14.00">L</text>
</g>
<!-- abc&#45;&gt;L -->
<g id="edge6" class="edge"><title>abc&#45;&gt;L</title>
<path fill="none" stroke="black" d="M205.573,-99C213.319,-99 222.754,-99 231.927,-99"/>
<polygon fill="black" stroke="black" points="232.067,-102.5 242.067,-99 232.067,-95.5001 232.067,-102.5"/>
</g>
</g>
</svg>
