<?xml version="1.0" encoding="UTF-8" standalone="no"?>
<!DOCTYPE svg PUBLIC "-//W3C//DTD SVG 1.1//EN"
 "http://www.w3.org/Graphics/SVG/1.1/DTD/svg11.dtd">
<!-- Generated by graphviz version 2.38.0 (20140413.2041)
 -->
<!-- Title: g Pages: 1 -->
<svg width="534pt" height="206pt"
 viewBox="0.00 0.00 533.70 206.00" xmlns="http://www.w3.org/2000/svg" xmlns:xlink="http://www.w3.org/1999/xlink">
<g id="graph0" class="graph" transform="scale(1 1) rotate(0) translate(4 202)">
<title>g</title>
<polygon fill="white" stroke="none" points="-4,4 -4,-202 529.703,-202 529.703,4 -4,4"/>
<!-- x -->
<g id="node1" class="node"><title>x</title>
<polygon fill="PowderBlue" stroke="black" points="36,-198 5.68434e-14,-198 5.68434e-14,-162 36,-162 36,-198"/>
<text text-anchor="start" x="14.5" y="-176.8" font-family="Times,serif" font-weight="bold" font-size="14.00">x</text>
</g>
<!-- dense1 -->
<g id="node7" class="node"><title>dense1</title>
<ellipse fill="whitesmoke" stroke="black" cx="104.207" cy="-126" rx="32.415" ry="18"/>
<text text-anchor="middle" x="104.207" y="-121.8" font-family="Times,serif" font-size="14.00">Dense</text>
</g>
<!-- x&#45;&gt;dense1 -->
<g id="edge1" class="edge"><title>x&#45;&gt;dense1</title>
<path fill="none" stroke="black" d="M36.0405,-169.072C46.8955,-162.111 61.2451,-152.909 73.8932,-144.798"/>
<polygon fill="black" stroke="black" points="75.7855,-147.743 82.3139,-139.398 72.0067,-141.85 75.7855,-147.743"/>
</g>
<!-- y -->
<g id="node2" class="node"><title>y</title>
<polygon fill="PowderBlue" stroke="black" points="421.984,-36 385.984,-36 385.984,-0 421.984,-0 421.984,-36"/>
<text text-anchor="start" x="400.484" y="-14.8" font-family="Times,serif" font-weight="bold" font-size="14.00">y</text>
</g>
<!-- L -->
<g id="node11" class="node"><title>L</title>
<ellipse fill="whitesmoke" stroke="black" cx="498.703" cy="-45" rx="27" ry="18"/>
<text text-anchor="start" x="494.427" y="-41.8" font-family="Times,serif" font-style="italic" font-size="14.00">L</text>
</g>
<!-- y&#45;&gt;L -->
<g id="edge10" class="edge"><title>y&#45;&gt;L</title>
<path fill="none" stroke="black" d="M421.99,-22.9522C433.601,-26.3334 449.385,-30.9297 463.537,-35.0509"/>
<polygon fill="black" stroke="black" points="462.891,-38.508 473.471,-37.9435 464.848,-31.7872 462.891,-38.508"/>
</g>
<!-- w1 -->
<g id="node3" class="node"><title>w1</title>
<polygon fill="coral" stroke="black" points="36,-144 5.68434e-14,-144 5.68434e-14,-108 36,-108 36,-144"/>
<text text-anchor="start" x="8.43994" y="-124.044" font-family="Times,serif" font-weight="bold" font-size="14.00">W</text>
<text text-anchor="start" x="21.6538" y="-124.044" font-family="Times,serif" font-style="italic" font-size="14.00">₁</text>
</g>
<!-- w1&#45;&gt;dense1 -->
<g id="edge2" class="edge"><title>w1&#45;&gt;dense1</title>
<path fill="none" stroke="black" d="M36.0405,-126C43.5127,-126 52.6408,-126 61.7299,-126"/>
<polygon fill="black" stroke="black" points="61.885,-129.5 71.885,-126 61.885,-122.5 61.885,-129.5"/>
</g>
<!-- b1 -->
<g id="node4" class="node"><title>b1</title>
<polygon fill="coral" stroke="black" points="36,-90 5.68434e-14,-90 5.68434e-14,-54 36,-54 36,-90"/>
<text text-anchor="start" x="11.5469" y="-70.0441" font-family="Times,serif" font-weight="bold" font-size="14.00">b</text>
<text text-anchor="start" x="18.5469" y="-70.0441" font-family="Times,serif" font-style="italic" font-size="14.00">₁</text>
</g>
<!-- b1&#45;&gt;dense1 -->
<g id="edge3" class="edge"><title>b1&#45;&gt;dense1</title>
<path fill="none" stroke="black" d="M36.0405,-82.9277C46.8955,-89.8888 61.2451,-99.0908 73.8932,-107.202"/>
<polygon fill="black" stroke="black" points="72.0067,-110.15 82.3139,-112.602 75.7855,-104.257 72.0067,-110.15"/>
</g>
<!-- w2 -->
<g id="node5" class="node"><title>w2</title>
<polygon fill="coral" stroke="black" points="222.133,-90 186.133,-90 186.133,-54 222.133,-54 222.133,-90"/>
<text text-anchor="start" x="194.573" y="-70.0441" font-family="Times,serif" font-weight="bold" font-size="14.00">W</text>
<text text-anchor="start" x="207.786" y="-70.0441" font-family="Times,serif" font-style="italic" font-size="14.00">₂</text>
</g>
<!-- dense2 -->
<g id="node8" class="node"><title>dense2</title>
<ellipse fill="whitesmoke" stroke="black" cx="304.058" cy="-72" rx="32.415" ry="18"/>
<text text-anchor="middle" x="304.058" y="-67.8" font-family="Times,serif" font-size="14.00">Dense</text>
</g>
<!-- w2&#45;&gt;dense2 -->
<g id="edge6" class="edge"><title>w2&#45;&gt;dense2</title>
<path fill="none" stroke="black" d="M222.19,-72C233.019,-72 247.537,-72 261.282,-72"/>
<polygon fill="black" stroke="black" points="261.569,-75.5001 271.569,-72 261.569,-68.5001 261.569,-75.5001"/>
</g>
<!-- b2 -->
<g id="node6" class="node"><title>b2</title>
<polygon fill="coral" stroke="black" points="222.133,-36 186.133,-36 186.133,-0 222.133,-0 222.133,-36"/>
<text text-anchor="start" x="197.679" y="-16.0441" font-family="Times,serif" font-weight="bold" font-size="14.00">b</text>
<text text-anchor="start" x="204.679" y="-16.0441" font-family="Times,serif" font-style="italic" font-size="14.00">₂</text>
</g>
<!-- b2&#45;&gt;dense2 -->
<g id="edge7" class="edge"><title>b2&#45;&gt;dense2</title>
<path fill="none" stroke="black" d="M222.19,-27.4061C235.657,-34.8325 254.829,-45.4043 271.125,-54.3907"/>
<polygon fill="black" stroke="black" points="269.876,-57.6988 280.323,-59.4628 273.256,-51.569 269.876,-57.6988"/>
</g>
<!-- relu1 -->
<g id="node9" class="node"><title>relu1</title>
<ellipse fill="whitesmoke" stroke="black" cx="204.133" cy="-126" rx="31.9393" ry="18"/>
<text text-anchor="middle" x="204.133" y="-121.8" font-family="Times,serif" font-size="14.00">ReLU</text>
</g>
<!-- dense1&#45;&gt;relu1 -->
<g id="edge4" class="edge"><title>dense1&#45;&gt;relu1</title>
<path fill="none" stroke="black" d="M136.46,-126C144.578,-126 153.447,-126 161.99,-126"/>
<polygon fill="black" stroke="black" points="162.176,-129.5 172.176,-126 162.176,-122.5 162.176,-129.5"/>
</g>
<!-- relu2 -->
<g id="node10" class="node"><title>relu2</title>
<ellipse fill="whitesmoke" stroke="black" cx="403.984" cy="-72" rx="31.9393" ry="18"/>
<text text-anchor="middle" x="403.984" y="-67.8" font-family="Times,serif" font-size="14.00">ReLU</text>
</g>
<!-- dense2&#45;&gt;relu2 -->
<g id="edge8" class="edge"><title>dense2&#45;&gt;relu2</title>
<path fill="none" stroke="black" d="M336.312,-72C344.43,-72 353.298,-72 361.841,-72"/>
<polygon fill="black" stroke="black" points="362.027,-75.5001 372.027,-72 362.027,-68.5001 362.027,-75.5001"/>
</g>
<!-- relu1&#45;&gt;dense2 -->
<g id="edge5" class="edge"><title>relu1&#45;&gt;dense2</title>
<path fill="none" stroke="black" d="M227.845,-113.476C240.822,-106.319 257.293,-97.2368 271.511,-89.3966"/>
<polygon fill="black" stroke="black" points="273.403,-92.3503 280.469,-84.4565 270.022,-86.2205 273.403,-92.3503"/>
</g>
<!-- relu2&#45;&gt;L -->
<g id="edge9" class="edge"><title>relu2&#45;&gt;L</title>
<path fill="none" stroke="black" d="M432.552,-63.9722C442.32,-61.1275 453.429,-57.8927 463.672,-54.9099"/>
<polygon fill="black" stroke="black" points="464.922,-58.1914 473.545,-52.035 462.965,-51.4705 464.922,-58.1914"/>
</g>
</g>
</svg>
