<?xml version="1.0" encoding="UTF-8" standalone="no"?>
<!DOCTYPE svg PUBLIC "-//W3C//DTD SVG 1.1//EN"
 "http://www.w3.org/Graphics/SVG/1.1/DTD/svg11.dtd">
<!-- Generated by graphviz version 2.38.0 (20140413.2041)
 -->
<!-- Title: g Pages: 1 -->
<svg width="291pt" height="44pt"
 viewBox="0.00 0.00 290.50 44.00" xmlns="http://www.w3.org/2000/svg" xmlns:xlink="http://www.w3.org/1999/xlink">
<g id="graph0" class="graph" transform="scale(1 1) rotate(0) translate(4 40)">
<title>g</title>
<polygon fill="white" stroke="none" points="-4,4 -4,-40 286.504,-40 286.504,4 -4,4"/>
<!-- idata -->
<g id="node1" class="node"><title>idata</title>
<polygon fill="lightgray" stroke="black" points="71.3961,-36 0.200531,-36 0.200531,-0 71.3961,-0 71.3961,-36"/>
<text text-anchor="middle" x="35.7983" y="-13.8" font-family="Times,serif" font-size="14.00">input data</text>
</g>
<!-- f -->
<g id="node3" class="node"><title>f</title>
<polygon fill="whitesmoke" stroke="black" points="168.063,-36 107.441,-36 107.441,-0 168.063,-0 168.063,-36"/>
<text text-anchor="middle" x="137.752" y="-13.8" font-family="Times,serif" font-size="14.00">forward</text>
</g>
<!-- idata&#45;&gt;f -->
<g id="edge1" class="edge"><title>idata&#45;&gt;f</title>
<path fill="none" stroke="black" d="M71.4767,-18C79.8146,-18 88.7813,-18 97.3179,-18"/>
<polygon fill="black" stroke="black" points="97.4464,-21.5001 107.446,-18 97.4463,-14.5001 97.4464,-21.5001"/>
</g>
<!-- odata -->
<g id="node2" class="node"><title>odata</title>
<polygon fill="plum" stroke="black" points="282.303,-36 204.108,-36 204.108,-0 282.303,-0 282.303,-36"/>
<text text-anchor="middle" x="243.206" y="-13.8" font-family="Times,serif" font-size="14.00">output data</text>
</g>
<!-- f&#45;&gt;odata -->
<g id="edge2" class="edge"><title>f&#45;&gt;odata</title>
<path fill="none" stroke="black" d="M168.121,-18C176.107,-18 184.974,-18 193.716,-18"/>
<polygon fill="black" stroke="black" points="193.862,-21.5001 203.862,-18 193.862,-14.5001 193.862,-21.5001"/>
</g>
</g>
</svg>
