<?xml version="1.0" encoding="UTF-8" standalone="no"?>
<!DOCTYPE svg PUBLIC "-//W3C//DTD SVG 1.1//EN"
 "http://www.w3.org/Graphics/SVG/1.1/DTD/svg11.dtd">
<!-- Generated by graphviz version 2.38.0 (20140413.2041)
 -->
<!-- Title: g Pages: 1 -->
<svg width="534pt" height="204pt"
 viewBox="0.00 0.00 533.70 204.00" xmlns="http://www.w3.org/2000/svg" xmlns:xlink="http://www.w3.org/1999/xlink">
<g id="graph0" class="graph" transform="scale(1 1) rotate(0) translate(4 200)">
<title>g</title>
<polygon fill="white" stroke="none" points="-4,4 -4,-200 529.703,-200 529.703,4 -4,4"/>
<!-- x -->
<g id="node1" class="node"><title>x</title>
<polygon fill="PowderBlue" stroke="black" points="36,-196 5.68434e-14,-196 5.68434e-14,-160 36,-160 36,-196"/>
<text text-anchor="start" x="14.5" y="-174.8" font-family="Times,serif" font-weight="bold" font-size="14.00">x</text>
</g>
<!-- dense1 -->
<g id="node6" class="node"><title>dense1</title>
<ellipse fill="whitesmoke" stroke="black" cx="104.207" cy="-122" rx="32.415" ry="18"/>
<text text-anchor="middle" x="104.207" y="-117.8" font-family="Times,serif" font-size="14.00">Dense</text>
</g>
<!-- x&#45;&gt;dense1 -->
<g id="edge1" class="edge"><title>x&#45;&gt;dense1</title>
<path fill="none" stroke="black" d="M36.0405,-166.668C46.9736,-159.397 61.4517,-149.768 74.1659,-141.313"/>
<polygon fill="black" stroke="black" points="76.2324,-144.142 82.621,-135.69 72.356,-138.313 76.2324,-144.142"/>
</g>
<!-- y -->
<g id="node2" class="node"><title>y</title>
<polygon fill="PowderBlue" stroke="black" points="421.984,-36 385.984,-36 385.984,-0 421.984,-0 421.984,-36"/>
<text text-anchor="start" x="400.484" y="-14.8" font-family="Times,serif" font-weight="bold" font-size="14.00">y</text>
</g>
<!-- L -->
<g id="node10" class="node"><title>L</title>
<ellipse fill="whitesmoke" stroke="black" cx="498.703" cy="-45" rx="27" ry="18"/>
<text text-anchor="start" x="494.427" y="-41.8" font-family="Times,serif" font-style="italic" font-size="14.00">L</text>
</g>
<!-- y&#45;&gt;L -->
<g id="edge10" class="edge"><title>y&#45;&gt;L</title>
<path fill="none" stroke="black" d="M421.99,-22.9522C433.601,-26.3334 449.385,-30.9297 463.537,-35.0509"/>
<polygon fill="black" stroke="black" points="462.891,-38.508 473.471,-37.9435 464.848,-31.7872 462.891,-38.508"/>
</g>
<!-- w1 -->
<g id="node3" class="node"><title>w1</title>
<polygon fill="coral" stroke="black" points="36,-88 5.68434e-14,-88 5.68434e-14,-52 36,-52 36,-88"/>
<text text-anchor="start" x="11.3931" y="-66.8" font-family="Times,serif" font-weight="bold" font-size="14.00">W</text>
</g>
<!-- w1&#45;&gt;dense1 -->
<g id="edge2" class="edge"><title>w1&#45;&gt;dense1</title>
<path fill="none" stroke="black" d="M36.0405,-80.523C46.7138,-87.114 60.7656,-95.7914 73.2566,-103.505"/>
<polygon fill="black" stroke="black" points="71.658,-106.631 82.0055,-108.908 75.336,-100.675 71.658,-106.631"/>
</g>
<!-- dense2 -->
<g id="node7" class="node"><title>dense2</title>
<ellipse fill="whitesmoke" stroke="black" cx="304.058" cy="-72" rx="32.415" ry="18"/>
<text text-anchor="middle" x="304.058" y="-67.8" font-family="Times,serif" font-size="14.00">Dense</text>
</g>
<!-- w1&#45;&gt;dense2 -->
<g id="edge6" class="edge"><title>w1&#45;&gt;dense2</title>
<path fill="none" stroke="black" d="M36.3415,-70.1221C80.4996,-70.433 198.157,-71.2614 261.425,-71.7069"/>
<polygon fill="black" stroke="black" points="261.439,-75.207 271.464,-71.7775 261.489,-68.2071 261.439,-75.207"/>
</g>
<!-- b1 -->
<g id="node4" class="node"><title>b1</title>
<polygon fill="coral" stroke="black" points="36,-142 5.68434e-14,-142 5.68434e-14,-106 36,-106 36,-142"/>
<text text-anchor="start" x="11.5469" y="-122.044" font-family="Times,serif" font-weight="bold" font-size="14.00">b</text>
<text text-anchor="start" x="18.5469" y="-122.044" font-family="Times,serif" font-style="italic" font-size="14.00">â‚</text>
</g>
<!-- b1&#45;&gt;dense1 -->
<g id="edge3" class="edge"><title>b1&#45;&gt;dense1</title>
<path fill="none" stroke="black" d="M36.0405,-123.595C43.5127,-123.418 52.6408,-123.201 61.7299,-122.985"/>
<polygon fill="black" stroke="black" points="61.9709,-126.48 71.885,-122.744 61.8047,-119.482 61.9709,-126.48"/>
</g>
<!-- b2 -->
<g id="node5" class="node"><title>b2</title>
<polygon fill="coral" stroke="black" points="222.133,-44 186.133,-44 186.133,-8 222.133,-8 222.133,-44"/>
<text text-anchor="start" x="197.679" y="-24.0441" font-family="Times,serif" font-weight="bold" font-size="14.00">b</text>
<text text-anchor="start" x="204.679" y="-24.0441" font-family="Times,serif" font-style="italic" font-size="14.00">â‚‚</text>
</g>
<!-- b2&#45;&gt;dense2 -->
<g id="edge7" class="edge"><title>b2&#45;&gt;dense2</title>
<path fill="none" stroke="black" d="M222.19,-34.0126C235.291,-40.1667 253.79,-48.8563 269.788,-56.3717"/>
<polygon fill="black" stroke="black" points="268.321,-59.549 278.86,-60.6329 271.297,-53.2132 268.321,-59.549"/>
</g>
<!-- relu1 -->
<g id="node8" class="node"><title>relu1</title>
<ellipse fill="whitesmoke" stroke="black" cx="204.133" cy="-120" rx="31.9393" ry="18"/>
<text text-anchor="middle" x="204.133" y="-115.8" font-family="Times,serif" font-size="14.00">ReLU</text>
</g>
<!-- dense1&#45;&gt;relu1 -->
<g id="edge4" class="edge"><title>dense1&#45;&gt;relu1</title>
<path fill="none" stroke="black" d="M136.46,-121.362C144.578,-121.196 153.447,-121.015 161.99,-120.84"/>
<polygon fill="black" stroke="black" points="162.249,-124.336 172.176,-120.632 162.106,-117.337 162.249,-124.336"/>
</g>
<!-- relu2 -->
<g id="node9" class="node"><title>relu2</title>
<ellipse fill="whitesmoke" stroke="black" cx="403.984" cy="-72" rx="31.9393" ry="18"/>
<text text-anchor="middle" x="403.984" y="-67.8" font-family="Times,serif" font-size="14.00">ReLU</text>
</g>
<!-- dense2&#45;&gt;relu2 -->
<g id="edge8" class="edge"><title>dense2&#45;&gt;relu2</title>
<path fill="none" stroke="black" d="M336.312,-72C344.43,-72 353.298,-72 361.841,-72"/>
<polygon fill="black" stroke="black" points="362.027,-75.5001 372.027,-72 362.027,-68.5001 362.027,-75.5001"/>
</g>
<!-- relu1&#45;&gt;dense2 -->
<g id="edge5" class="edge"><title>relu1&#45;&gt;dense2</title>
<path fill="none" stroke="black" d="M228.838,-108.381C241.255,-102.294 256.658,-94.7442 270.207,-88.1026"/>
<polygon fill="black" stroke="black" points="271.793,-91.223 279.232,-83.6788 268.712,-84.9375 271.793,-91.223"/>
</g>
<!-- relu2&#45;&gt;L -->
<g id="edge9" class="edge"><title>relu2&#45;&gt;L</title>
<path fill="none" stroke="black" d="M432.552,-63.9722C442.32,-61.1275 453.429,-57.8927 463.672,-54.9099"/>
<polygon fill="black" stroke="black" points="464.922,-58.1914 473.545,-52.035 462.965,-51.4705 464.922,-58.1914"/>
</g>
</g>
</svg>
